<svg width="1001" height="1001" viewBox="0 0 1001 1001" version="1.1" xmlns="http://www.w3.org/2000/svg" xmlns:xlink="http://www.w3.org/1999/xlink">
<title>edit-outline</title>
<desc>Created using Figma</desc>
<g id="Canvas" transform="matrix(71.5 0 0 71.5 -35249.5 -5863)">
<g id="edit-outline">
<mask id="mask0_outline" mask-type="alpha">
<g id="Mask">
<use xlink:href="#path0_fill" transform="translate(493 82)" fill="#FFFFFF"/>
</g>
</mask>
<g id="Mask" mask="url(#mask0_outline)">
<use xlink:href="#path0_fill" transform="translate(493 82)" fill="#FFFFFF"/>
</g>
<g id="&#226;&#134;&#170;&#240;&#159;&#142;&#168;Color" mask="url(#mask0_outline)">
<g id="Rectangle 3">
<use xlink:href="#path1_fill" transform="translate(493 82)" fill="#FFFFFF"/>
</g>
</g>
</g>
</g>
<defs>
<path id="path0_fill" fill-rule="evenodd" d="M 9.99609 0.682617C 10.9102 -0.227539 12.3984 -0.227539 13.3125 0.682617C 13.7578 1.12402 14 1.71387 14 2.33887C 14 2.91309 13.9492 3.26465 13.332 3.87793L 4.41406 12.9248L 0 13.999L 1.125 9.58105L 9.99609 0.682617ZM 1.95703 10.3232L 1.38672 12.5928L 3.66016 12.0264C 3.46094 11.1865 2.80078 10.5225 1.95703 10.3232ZM 2.64844 9.46777L 9.59766 2.52637L 11.4688 4.39355L 4.51172 11.3389C 4.17578 10.4873 3.5 9.80762 2.64844 9.46777ZM 12.1914 3.6709L 12.5898 3.27246C 12.8398 3.02246 12.9766 2.69043 12.9766 2.33887C 12.9766 1.9873 12.8398 1.65527 12.5898 1.40527C 12.0742 0.893555 11.2383 0.893555 10.7188 1.40527L 10.3203 1.80371L 12.1914 3.6709Z"/>
<path id="path1_fill" fill-rule="evenodd" d="M 0 0L 14 0L 14 14L 0 14L 0 0Z"/>
</defs>
</svg>
